<svg width="125" height="124" viewBox="0 0 125 124" fill="none" xmlns="http://www.w3.org/2000/svg">
<rect width="125" height="124" rx="20" fill="white"/>
<path fill-rule="evenodd" clip-rule="evenodd" d="M73.7853 24.2212C62.1498 19.7376 44.373 27.8415 47.7852 44.5606L47.7853 44.5605C75.2853 28.5606 81.2853 55.0605 62.2853 51.5605C56.0803 50.6298 52.3779 49.1215 48.4308 47.5135L48.4307 47.5135C46.0167 46.53 43.511 45.5093 40.2853 44.5605C20.7854 36.5606 12.2853 62.5606 38.2852 62.5606L39.5516 51.1636L38.2853 62.5606C39.0009 57.003 41.1162 53.9524 44.7853 52.8641C47.9384 51.9289 52.2391 52.4429 57.7853 54.0605C70.353 57.1768 80.7853 51.0605 83.2853 39.0605L83.2852 39.0606C83.2853 31.1209 79.2004 26.3079 73.7853 24.2212ZM82.7853 52.5605C83.1438 40.4979 84.5964 36.7862 89.7853 36.5605C102.285 36.5605 103.773 62.8697 87.7853 62.0606C87.3697 58.1083 86.7986 56.0386 85.2853 52.5605C81.7853 69.0606 74.7853 72.5606 51.2853 72.0606L51.0112 68.771L51.011 68.7712L51.2849 72.0606C34.2852 75.5606 54.2847 100.561 71.2849 78.5606L71.2861 78.5609L71.2853 78.5606C80.2018 69.1301 89.2441 62.7058 97.2853 62.5606C105.034 63.9491 104.285 78.5606 96.2853 89.0605C88.2853 99.5605 77.5436 99.804 69.7853 88.5605C79.9546 84.7292 85.2853 78.5606 87.2853 69.5606C80.2714 73.064 76.7069 76.0192 71.2853 83.0606C59.6087 96.3668 53.1943 101.296 42.2853 100.561L42.2856 100.56L42.2851 100.561C28.2853 98.0605 23.2851 83.5606 28.2851 73.0606L28.2884 73.0614L28.2853 73.0605C34.6276 64.3171 40.7553 62.3165 56.6552 64.5423L56.7853 65.0621V64.5606C73.3317 66.9981 79.5217 64.9275 82.7853 52.5605Z" fill="url(#paint0_linear_168_160)"/>
<defs>
<linearGradient id="paint0_linear_168_160" x1="99.5" y1="5" x2="29.5" y2="95.5" gradientUnits="userSpaceOnUse">
<stop stop-color="#35E30A"/>
<stop offset="1"/>
</linearGradient>
</defs>
</svg>