<?xml version="1.0" encoding="utf-8"?>
<!-- Uploaded to: SVG Repo, www.svgrepo.com, Generator: SVG Repo Mixer Tools -->
<svg fill="#000000" width="800px" height="800px" viewBox="0 0 24 24" version="1.1" xmlns="http://www.w3.org/2000/svg">
    <title>water-pump</title>
    <!-- Pump base -->
    <rect x="5" y="18" width="14" height="3" rx="1"/>
    <!-- Pump housing (rounded body) -->
    <path d="M7 9c0-1.1.9-2 2-2h6c1.1 0 2 .9 2 2v9H7V9z"/>
    <!-- Outlet pipe -->
    <path d="M17 11h3c.55 0 1 .45 1 1v2h-2v-1h-2v-2z"/>
    <!-- Pump handle/lever on top -->
    <path d="M9 3h7c.55 0 1 .45 1 1s-.45 1-1 1h-4v2h-2V5H9c-.55 0-1-.45-1-1s.45-1 1-1z"/>
    <!-- Water inside housing (wave) -->
    <path d="M8 13c1.2-1 2.3-1 3.5 0s2.3 1 3.5 0v3.5c-1.2 1-2.3 1-3.5 0s-2.3-1-3.5 0V13z" fill="#000000" opacity="0.35"/>
    <!-- Water drops from outlet -->
    <circle cx="20.5" cy="16.5" r="0.9"/>
    <circle cx="20.5" cy="19" r="0.7"/>
</svg>
