<svg width="81" height="78" viewBox="0 0 81 78" fill="none" xmlns="http://www.w3.org/2000/svg">
<path fill-rule="evenodd" clip-rule="evenodd" d="M51.7853 1.22123C40.1498 -3.2624 22.373 4.84152 25.7852 21.5606L25.7853 21.5605C53.2853 5.56055 59.2853 32.0605 40.2853 28.5605C34.0803 27.6298 30.3779 26.1215 26.4308 24.5135L26.4307 24.5135C24.0167 23.53 21.511 22.5093 18.2853 21.5605C-1.21456 13.5606 -9.71467 39.5606 16.2852 39.5606L17.5516 28.1636L16.2853 39.5606C17.0009 34.003 19.1162 30.9524 22.7853 29.8641C25.9384 28.9289 30.2391 29.4429 35.7853 31.0605C48.353 34.1768 58.7853 28.0605 61.2853 16.0605L61.2852 16.0606C61.2853 8.12085 57.2004 3.30788 51.7853 1.22123ZM60.7853 29.5605C61.1438 17.4979 62.5964 13.7862 67.7853 13.5605C80.2853 13.5605 81.7729 39.8697 65.7853 39.0606C65.3697 35.1083 64.7986 33.0386 63.2853 29.5605C59.7853 46.0606 52.7853 49.5606 29.2853 49.0606L29.0112 45.771L29.011 45.7712L29.2849 49.0606C12.2852 52.5606 32.2847 77.5605 49.2849 55.5606L49.2861 55.5609L49.2853 55.5606C58.2018 46.1301 67.2441 39.7058 75.2853 39.5606C83.0343 40.9491 82.2853 55.5606 74.2853 66.0605C66.2853 76.5605 55.5436 76.804 47.7853 65.5605C57.9546 61.7292 63.2853 55.5606 65.2853 46.5606C58.2714 50.064 54.7069 53.0192 49.2853 60.0606C37.6087 73.3668 31.1943 78.2959 20.2853 77.5605L20.2856 77.5598L20.2851 77.5605C6.28527 75.0605 1.28508 60.5606 6.2851 50.0606L6.28835 50.0614L6.2853 50.0605C12.6276 41.3171 18.7553 39.3165 34.6552 41.5423L34.7853 42.0621V41.5606C51.3317 43.9981 57.5217 41.9275 60.7853 29.5605Z" fill="url(#paint0_linear_168_162)"/>
<defs>
<linearGradient id="paint0_linear_168_162" x1="77.5" y1="-18" x2="7.5" y2="72.5" gradientUnits="userSpaceOnUse">
<stop stop-color="#35E30A"/>
<stop offset="1"/>
</linearGradient>
</defs>
</svg>