<svg width="15" height="13" viewBox="0 0 15 13" fill="none" xmlns="http://www.w3.org/2000/svg">
<path d="M0.722222 0H13.7222C13.9138 0 14.0975 0.076091 14.2329 0.211534C14.3684 0.346977 14.4444 0.530677 14.4444 0.722222V12.2778C14.4444 12.4693 14.3684 12.653 14.2329 12.7885C14.0975 12.9239 13.9138 13 13.7222 13H0.722222C0.530677 13 0.346977 12.9239 0.211534 12.7885C0.076091 12.653 0 12.4693 0 12.2778V0.722222C0 0.530677 0.076091 0.346977 0.211534 0.211534C0.346977 0.076091 0.530677 0 0.722222 0ZM7.26556 6.27106L2.63467 2.33856L1.69939 3.43922L7.27494 8.17339L12.7501 3.43561L11.8054 2.34289L7.26556 6.27106Z" fill="#197E00"/>
</svg>