<svg width="25" height="25" viewBox="0 0 25 25" fill="none" xmlns="http://www.w3.org/2000/svg">
<path d="M6.24992 3.125C9.88534 3.125 12.8989 5.78542 13.451 9.26563C14.6749 8.04583 16.3645 7.29167 18.2291 7.29167H22.9166V9.89583C22.9166 13.6354 19.8853 16.6667 16.1458 16.6667H13.5416V21.875H11.4583V13.5417H9.37492C5.34784 13.5417 2.08325 10.2771 2.08325 6.25V3.125H6.24992ZM20.8333 9.375H18.2291C15.6405 9.375 13.5416 11.474 13.5416 14.0625V14.5833H16.1458C18.7343 14.5833 20.8333 12.4844 20.8333 9.89583V9.375ZM6.24992 5.20833H4.16659V6.25C4.16659 9.12604 6.49888 11.4583 9.37492 11.4583H11.4583V10.4167C11.4583 7.54063 9.12596 5.20833 6.24992 5.20833Z" fill="#197E00"/>
</svg>