<svg width="12" height="14" viewBox="0 0 12 14" fill="none" xmlns="http://www.w3.org/2000/svg">
<path d="M10.6667 5.33333H11.3333C11.5101 5.33333 11.6797 5.40357 11.8047 5.5286C11.9298 5.65362 12 5.82319 12 6V12.6667C12 12.8435 11.9298 13.013 11.8047 13.1381C11.6797 13.2631 11.5101 13.3333 11.3333 13.3333H0.666667C0.489856 13.3333 0.320286 13.2631 0.195262 13.1381C0.0702379 13.013 0 12.8435 0 12.6667V6C0 5.82319 0.0702379 5.65362 0.195262 5.5286C0.320286 5.40357 0.489856 5.33333 0.666667 5.33333H1.33333V4.66667C1.33333 4.05383 1.45404 3.447 1.68856 2.88081C1.92308 2.31462 2.26683 1.80017 2.70017 1.36683C3.13351 0.933495 3.64796 0.589751 4.21414 0.355229C4.78033 0.120707 5.38716 0 6 0C6.61284 0 7.21967 0.120707 7.78586 0.355229C8.35204 0.589751 8.86649 0.933495 9.29983 1.36683C9.73317 1.80017 10.0769 2.31462 10.3114 2.88081C10.546 3.447 10.6667 4.05383 10.6667 4.66667V5.33333ZM9.33333 5.33333V4.66667C9.33333 3.78261 8.98214 2.93477 8.35702 2.30964C7.7319 1.68452 6.88406 1.33333 6 1.33333C5.11595 1.33333 4.2681 1.68452 3.64298 2.30964C3.01786 2.93477 2.66667 3.78261 2.66667 4.66667V5.33333H9.33333ZM5.33333 8V10.6667H6.66667V8H5.33333Z" fill="#197E00"/>
</svg>