<svg width="172" height="109" viewBox="0 0 172 109" fill="none" xmlns="http://www.w3.org/2000/svg">
<path d="M1.27273 4.26136V0.727272H19.8409V4.26136H12.6477V24H8.46591V4.26136H1.27273ZM27.3523 13.7727V24H23.2386V0.727272H27.2614V9.51136H27.4659C27.875 8.52651 28.5076 7.75 29.3636 7.18182C30.2273 6.60606 31.3258 6.31818 32.6591 6.31818C33.8712 6.31818 34.928 6.57197 35.8295 7.07954C36.7311 7.58712 37.428 8.32954 37.9205 9.30682C38.4205 10.2841 38.6705 11.4773 38.6705 12.8864V24H34.5568V13.5227C34.5568 12.3485 34.2538 11.4356 33.6477 10.7841C33.0492 10.125 32.2083 9.79545 31.125 9.79545C30.3977 9.79545 29.7462 9.95455 29.1705 10.2727C28.6023 10.5833 28.1553 11.0341 27.8295 11.625C27.5114 12.2159 27.3523 12.9318 27.3523 13.7727ZM50.5909 24.3409C48.8409 24.3409 47.3295 23.9773 46.0568 23.25C44.7917 22.5152 43.8182 21.4773 43.1364 20.1364C42.4545 18.7879 42.1136 17.2008 42.1136 15.375C42.1136 13.5795 42.4545 12.0038 43.1364 10.6477C43.8258 9.28409 44.7879 8.22348 46.0227 7.46591C47.2576 6.70076 48.7083 6.31818 50.375 6.31818C51.4508 6.31818 52.4659 6.49242 53.4205 6.84091C54.3826 7.18182 55.2311 7.71212 55.9659 8.43182C56.7083 9.15151 57.2917 10.0682 57.7159 11.1818C58.1402 12.2879 58.3523 13.6061 58.3523 15.1364V16.3977H44.0455V13.625H54.4091C54.4015 12.8371 54.2311 12.1364 53.8977 11.5227C53.5644 10.9015 53.0985 10.4129 52.5 10.0568C51.9091 9.70076 51.2197 9.52273 50.4318 9.52273C49.5909 9.52273 48.8523 9.72727 48.2159 10.1364C47.5795 10.5379 47.0833 11.0682 46.7273 11.7273C46.3788 12.3788 46.2008 13.0947 46.1932 13.875V16.2955C46.1932 17.3106 46.3788 18.1818 46.75 18.9091C47.1212 19.6288 47.6402 20.1818 48.3068 20.5682C48.9735 20.947 49.7538 21.1364 50.6477 21.1364C51.2462 21.1364 51.7879 21.053 52.2727 20.8864C52.7576 20.7121 53.178 20.4583 53.5341 20.125C53.8902 19.7917 54.1591 19.3788 54.3409 18.8864L58.1818 19.3182C57.9394 20.3333 57.4773 21.2197 56.7955 21.9773C56.1212 22.7273 55.2576 23.3106 54.2045 23.7273C53.1515 24.1364 51.947 24.3409 50.5909 24.3409ZM69.9517 24V0.727272H74.0653V9.43182H74.2358C74.4479 9.00758 74.7472 8.55682 75.1335 8.07955C75.5199 7.5947 76.0426 7.18182 76.7017 6.84091C77.3608 6.49242 78.2017 6.31818 79.2244 6.31818C80.5729 6.31818 81.7888 6.66288 82.8722 7.35227C83.9631 8.03409 84.8267 9.04545 85.4631 10.3864C86.107 11.7197 86.429 13.3561 86.429 15.2955C86.429 17.2121 86.1146 18.8409 85.4858 20.1818C84.857 21.5227 84.0009 22.5455 82.9176 23.25C81.8343 23.9545 80.607 24.3068 79.2358 24.3068C78.2358 24.3068 77.4063 24.1402 76.7472 23.8068C76.0881 23.4735 75.5578 23.072 75.1562 22.6023C74.7623 22.125 74.4555 21.6742 74.2358 21.25H73.9972V24H69.9517ZM73.9858 15.2727C73.9858 16.4015 74.1449 17.3902 74.4631 18.2386C74.7888 19.0871 75.2547 19.75 75.8608 20.2273C76.4744 20.697 77.2169 20.9318 78.0881 20.9318C78.9972 20.9318 79.7585 20.6894 80.3722 20.2045C80.9858 19.7121 81.4479 19.0417 81.7585 18.1932C82.0767 17.3371 82.2358 16.3636 82.2358 15.2727C82.2358 14.1894 82.0805 13.2273 81.7699 12.3864C81.4593 11.5455 80.9972 10.8864 80.3835 10.4091C79.7699 9.93182 79.0047 9.69318 78.0881 9.69318C77.2093 9.69318 76.4631 9.92424 75.8494 10.3864C75.2358 10.8485 74.7699 11.4962 74.4517 12.3295C74.1411 13.1629 73.9858 14.1439 73.9858 15.2727ZM97.6534 24.3409C95.9034 24.3409 94.392 23.9773 93.1193 23.25C91.8542 22.5152 90.8807 21.4773 90.1989 20.1364C89.517 18.7879 89.1761 17.2008 89.1761 15.375C89.1761 13.5795 89.517 12.0038 90.1989 10.6477C90.8883 9.28409 91.8504 8.22348 93.0852 7.46591C94.3201 6.70076 95.7708 6.31818 97.4375 6.31818C98.5133 6.31818 99.5284 6.49242 100.483 6.84091C101.445 7.18182 102.294 7.71212 103.028 8.43182C103.771 9.15151 104.354 10.0682 104.778 11.1818C105.203 12.2879 105.415 13.6061 105.415 15.1364V16.3977H91.108V13.625H101.472C101.464 12.8371 101.294 12.1364 100.96 11.5227C100.627 10.9015 100.161 10.4129 99.5625 10.0568C98.9716 9.70076 98.2822 9.52273 97.4943 9.52273C96.6534 9.52273 95.9148 9.72727 95.2784 10.1364C94.642 10.5379 94.1458 11.0682 93.7898 11.7273C93.4413 12.3788 93.2633 13.0947 93.2557 13.875V16.2955C93.2557 17.3106 93.4413 18.1818 93.8125 18.9091C94.1837 19.6288 94.7027 20.1818 95.3693 20.5682C96.036 20.947 96.8163 21.1364 97.7102 21.1364C98.3087 21.1364 98.8504 21.053 99.3352 20.8864C99.8201 20.7121 100.241 20.4583 100.597 20.125C100.953 19.7917 101.222 19.3788 101.403 18.8864L105.244 19.3182C105.002 20.3333 104.54 21.2197 103.858 21.9773C103.184 22.7273 102.32 23.3106 101.267 23.7273C100.214 24.1364 99.0095 24.3409 97.6534 24.3409ZM122.69 11.1591L118.94 11.5682C118.834 11.1894 118.649 10.8333 118.384 10.5C118.126 10.1667 117.777 9.89773 117.338 9.69318C116.899 9.48864 116.361 9.38636 115.724 9.38636C114.868 9.38636 114.149 9.57197 113.565 9.94318C112.99 10.3144 112.705 10.7955 112.713 11.3864C112.705 11.8939 112.891 12.3068 113.27 12.625C113.656 12.9432 114.293 13.2045 115.179 13.4091L118.156 14.0455C119.808 14.4015 121.035 14.9659 121.838 15.7386C122.649 16.5114 123.058 17.5227 123.065 18.7727C123.058 19.8712 122.736 20.8409 122.099 21.6818C121.471 22.5152 120.596 23.1667 119.474 23.6364C118.353 24.1061 117.065 24.3409 115.611 24.3409C113.474 24.3409 111.755 23.8939 110.452 23C109.149 22.0985 108.372 20.8447 108.122 19.2386L112.134 18.8523C112.315 19.6402 112.702 20.2348 113.293 20.6364C113.884 21.0379 114.652 21.2386 115.599 21.2386C116.577 21.2386 117.361 21.0379 117.952 20.6364C118.55 20.2348 118.849 19.7386 118.849 19.1477C118.849 18.6477 118.656 18.2348 118.27 17.9091C117.891 17.5833 117.3 17.3333 116.497 17.1591L113.52 16.5341C111.846 16.1856 110.607 15.5985 109.804 14.7727C109.001 13.9394 108.603 12.8864 108.611 11.6136C108.603 10.5379 108.895 9.60606 109.486 8.81818C110.084 8.02273 110.914 7.40909 111.974 6.97727C113.043 6.53788 114.274 6.31818 115.668 6.31818C117.713 6.31818 119.323 6.75379 120.497 7.625C121.679 8.49621 122.41 9.67424 122.69 11.1591ZM135.173 6.54545V9.72727H125.139V6.54545H135.173ZM127.616 2.36364H131.73V18.75C131.73 19.303 131.813 19.7273 131.98 20.0227C132.154 20.3106 132.382 20.5076 132.662 20.6136C132.942 20.7197 133.253 20.7727 133.594 20.7727C133.851 20.7727 134.086 20.7538 134.298 20.7159C134.518 20.678 134.685 20.6439 134.798 20.6136L135.491 23.8295C135.272 23.9053 134.957 23.9886 134.548 24.0795C134.147 24.1705 133.654 24.2235 133.071 24.2386C132.041 24.2689 131.113 24.1136 130.287 23.7727C129.461 23.4242 128.806 22.8864 128.321 22.1591C127.844 21.4318 127.609 20.5227 127.616 19.4318V2.36364ZM7.13636 63.3523C6.0303 63.3523 5.03409 63.1553 4.14773 62.7614C3.26894 62.3598 2.57197 61.7689 2.05682 60.9886C1.54924 60.2083 1.29545 59.2462 1.29545 58.1023C1.29545 57.1174 1.47727 56.303 1.84091 55.6591C2.20455 55.0152 2.70076 54.5 3.32955 54.1136C3.95833 53.7273 4.66667 53.4356 5.45455 53.2386C6.25 53.0341 7.07197 52.8864 7.92045 52.7955C8.94318 52.6894 9.77273 52.5947 10.4091 52.5114C11.0455 52.4205 11.5076 52.2841 11.7955 52.1023C12.0909 51.9129 12.2386 51.6212 12.2386 51.2273V51.1591C12.2386 50.303 11.9848 49.6402 11.4773 49.1705C10.9697 48.7008 10.2386 48.4659 9.28409 48.4659C8.27652 48.4659 7.47727 48.6856 6.88636 49.125C6.30303 49.5644 5.90909 50.0833 5.70455 50.6818L1.86364 50.1364C2.16667 49.0758 2.66667 48.1894 3.36364 47.4773C4.06061 46.7576 4.91288 46.2197 5.92045 45.8636C6.92803 45.5 8.04167 45.3182 9.26136 45.3182C10.1023 45.3182 10.9394 45.4167 11.7727 45.6136C12.6061 45.8106 13.3674 46.1364 14.0568 46.5909C14.7462 47.0379 15.2992 47.6477 15.7159 48.4205C16.1402 49.1932 16.3523 50.1591 16.3523 51.3182V63H12.3977V60.6023H12.2614C12.0114 61.0871 11.6591 61.5417 11.2045 61.9659C10.7576 62.3826 10.1932 62.7197 9.51136 62.9773C8.83712 63.2273 8.04545 63.3523 7.13636 63.3523ZM8.20455 60.3295C9.0303 60.3295 9.74621 60.1667 10.3523 59.8409C10.9583 59.5076 11.4242 59.0682 11.75 58.5227C12.0833 57.9773 12.25 57.3826 12.25 56.7386V54.6818C12.1212 54.7879 11.9015 54.8864 11.5909 54.9773C11.2879 55.0682 10.947 55.1477 10.5682 55.2159C10.1894 55.2841 9.81439 55.3447 9.44318 55.3977C9.07197 55.4508 8.75 55.4962 8.47727 55.5341C7.86364 55.6174 7.31439 55.7538 6.82955 55.9432C6.3447 56.1326 5.96212 56.3977 5.68182 56.7386C5.40152 57.072 5.26136 57.5038 5.26136 58.0341C5.26136 58.7917 5.53788 59.3636 6.09091 59.75C6.64394 60.1364 7.34849 60.3295 8.20455 60.3295ZM20.4886 69.5455V45.5455H24.5341V48.4318H24.7727C24.9848 48.0076 25.2841 47.5568 25.6705 47.0795C26.0568 46.5947 26.5795 46.1818 27.2386 45.8409C27.8977 45.4924 28.7386 45.3182 29.7614 45.3182C31.1098 45.3182 32.3258 45.6629 33.4091 46.3523C34.5 47.0341 35.3636 48.0455 36 49.3864C36.6439 50.7197 36.9659 52.3561 36.9659 54.2955C36.9659 56.2121 36.6515 57.8409 36.0227 59.1818C35.3939 60.5227 34.5379 61.5455 33.4545 62.25C32.3712 62.9545 31.1439 63.3068 29.7727 63.3068C28.7727 63.3068 27.9432 63.1402 27.2841 62.8068C26.625 62.4735 26.0947 62.072 25.6932 61.6023C25.2992 61.125 24.9924 60.6742 24.7727 60.25H24.6023V69.5455H20.4886ZM24.5227 54.2727C24.5227 55.4015 24.6818 56.3902 25 57.2386C25.3258 58.0871 25.7917 58.75 26.3977 59.2273C27.0114 59.697 27.7538 59.9318 28.625 59.9318C29.5341 59.9318 30.2955 59.6894 30.9091 59.2045C31.5227 58.7121 31.9848 58.0417 32.2955 57.1932C32.6136 56.3371 32.7727 55.3636 32.7727 54.2727C32.7727 53.1894 32.6174 52.2273 32.3068 51.3864C31.9962 50.5455 31.5341 49.8864 30.9205 49.4091C30.3068 48.9318 29.5417 48.6932 28.625 48.6932C27.7462 48.6932 27 48.9242 26.3864 49.3864C25.7727 49.8485 25.3068 50.4962 24.9886 51.3295C24.678 52.1629 24.5227 53.1439 24.5227 54.2727ZM40.4886 69.5455V45.5455H44.5341V48.4318H44.7727C44.9848 48.0076 45.2841 47.5568 45.6705 47.0795C46.0568 46.5947 46.5795 46.1818 47.2386 45.8409C47.8977 45.4924 48.7386 45.3182 49.7614 45.3182C51.1098 45.3182 52.3258 45.6629 53.4091 46.3523C54.5 47.0341 55.3636 48.0455 56 49.3864C56.6439 50.7197 56.9659 52.3561 56.9659 54.2955C56.9659 56.2121 56.6515 57.8409 56.0227 59.1818C55.3939 60.5227 54.5379 61.5455 53.4545 62.25C52.3712 62.9545 51.1439 63.3068 49.7727 63.3068C48.7727 63.3068 47.9432 63.1402 47.2841 62.8068C46.625 62.4735 46.0947 62.072 45.6932 61.6023C45.2992 61.125 44.9924 60.6742 44.7727 60.25H44.6023V69.5455H40.4886ZM44.5227 54.2727C44.5227 55.4015 44.6818 56.3902 45 57.2386C45.3258 58.0871 45.7917 58.75 46.3977 59.2273C47.0114 59.697 47.7538 59.9318 48.625 59.9318C49.5341 59.9318 50.2955 59.6894 50.9091 59.2045C51.5227 58.7121 51.9848 58.0417 52.2955 57.1932C52.6136 56.3371 52.7727 55.3636 52.7727 54.2727C52.7727 53.1894 52.6174 52.2273 52.3068 51.3864C51.9962 50.5455 51.5341 49.8864 50.9205 49.4091C50.3068 48.9318 49.5417 48.6932 48.625 48.6932C47.7462 48.6932 47 48.9242 46.3864 49.3864C45.7727 49.8485 45.3068 50.4962 44.9886 51.3295C44.678 52.1629 44.5227 53.1439 44.5227 54.2727ZM77.267 45.5455V48.7273H66.9489V45.5455H77.267ZM69.5284 63V43.8977C69.5284 42.7235 69.7708 41.7462 70.2557 40.9659C70.7481 40.1856 71.4072 39.6023 72.233 39.2159C73.0587 38.8295 73.9754 38.6364 74.983 38.6364C75.6951 38.6364 76.3277 38.6932 76.8807 38.8068C77.4337 38.9205 77.8428 39.0227 78.108 39.1136L77.2898 42.2955C77.1155 42.2424 76.8958 42.1894 76.6307 42.1364C76.3655 42.0758 76.0701 42.0455 75.7443 42.0455C74.9792 42.0455 74.4375 42.2311 74.1193 42.6023C73.8087 42.9659 73.6534 43.4886 73.6534 44.1705V63H69.5284ZM87.446 63.3409C85.7415 63.3409 84.2642 62.9659 83.0142 62.2159C81.7642 61.4659 80.7945 60.4167 80.1051 59.0682C79.4233 57.7197 79.0824 56.1439 79.0824 54.3409C79.0824 52.5379 79.4233 50.9583 80.1051 49.6023C80.7945 48.2462 81.7642 47.1932 83.0142 46.4432C84.2642 45.6932 85.7415 45.3182 87.446 45.3182C89.1506 45.3182 90.6278 45.6932 91.8778 46.4432C93.1278 47.1932 94.0938 48.2462 94.7756 49.6023C95.465 50.9583 95.8097 52.5379 95.8097 54.3409C95.8097 56.1439 95.465 57.7197 94.7756 59.0682C94.0938 60.4167 93.1278 61.4659 91.8778 62.2159C90.6278 62.9659 89.1506 63.3409 87.446 63.3409ZM87.4688 60.0455C88.393 60.0455 89.1657 59.7917 89.7869 59.2841C90.4081 58.7689 90.8703 58.0795 91.1733 57.2159C91.4839 56.3523 91.6392 55.3902 91.6392 54.3295C91.6392 53.2614 91.4839 52.2955 91.1733 51.4318C90.8703 50.5606 90.4081 49.8674 89.7869 49.3523C89.1657 48.8371 88.393 48.5795 87.4688 48.5795C86.5218 48.5795 85.7339 48.8371 85.1051 49.3523C84.4839 49.8674 84.018 50.5606 83.7074 51.4318C83.4044 52.2955 83.2528 53.2614 83.2528 54.3295C83.2528 55.3902 83.4044 56.3523 83.7074 57.2159C84.018 58.0795 84.4839 58.7689 85.1051 59.2841C85.7339 59.7917 86.5218 60.0455 87.4688 60.0455ZM99.3011 63V45.5455H103.29V48.4545H103.472C103.79 47.447 104.335 46.6705 105.108 46.125C105.888 45.572 106.778 45.2955 107.778 45.2955C108.006 45.2955 108.259 45.3068 108.54 45.3295C108.828 45.3447 109.066 45.3712 109.256 45.4091V49.1932C109.081 49.1326 108.805 49.0795 108.426 49.0341C108.055 48.9811 107.695 48.9545 107.347 48.9545C106.597 48.9545 105.922 49.1174 105.324 49.4432C104.733 49.7614 104.267 50.2045 103.926 50.7727C103.585 51.3409 103.415 51.9962 103.415 52.7386V63H99.3011ZM4.67045 108.545C4.10985 108.545 3.59091 108.5 3.11364 108.409C2.64394 108.326 2.26894 108.227 1.98864 108.114L2.94318 104.909C3.54167 105.083 4.07576 105.167 4.54545 105.159C5.01515 105.152 5.42803 105.004 5.78409 104.716C6.14773 104.436 6.45455 103.966 6.70455 103.307L7.05682 102.364L0.727273 84.5455H5.09091L9.11364 97.7273H9.29545L13.3295 84.5455H17.7045L10.7159 104.114C10.3902 105.038 9.95833 105.83 9.42045 106.489C8.88258 107.155 8.22349 107.663 7.44318 108.011C6.67045 108.367 5.74621 108.545 4.67045 108.545ZM27.571 102.341C25.8665 102.341 24.3892 101.966 23.1392 101.216C21.8892 100.466 20.9195 99.4167 20.2301 98.0682C19.5483 96.7197 19.2074 95.1439 19.2074 93.3409C19.2074 91.5379 19.5483 89.9583 20.2301 88.6023C20.9195 87.2462 21.8892 86.1932 23.1392 85.4432C24.3892 84.6932 25.8665 84.3182 27.571 84.3182C29.2756 84.3182 30.7528 84.6932 32.0028 85.4432C33.2528 86.1932 34.2188 87.2462 34.9006 88.6023C35.59 89.9583 35.9347 91.5379 35.9347 93.3409C35.9347 95.1439 35.59 96.7197 34.9006 98.0682C34.2188 99.4167 33.2528 100.466 32.0028 101.216C30.7528 101.966 29.2756 102.341 27.571 102.341ZM27.5938 99.0455C28.518 99.0455 29.2907 98.7917 29.9119 98.2841C30.5331 97.7689 30.9953 97.0795 31.2983 96.2159C31.6089 95.3523 31.7642 94.3902 31.7642 93.3295C31.7642 92.2614 31.6089 91.2955 31.2983 90.4318C30.9953 89.5606 30.5331 88.8674 29.9119 88.3523C29.2907 87.8371 28.518 87.5795 27.5938 87.5795C26.6468 87.5795 25.8589 87.8371 25.2301 88.3523C24.6089 88.8674 24.143 89.5606 23.8324 90.4318C23.5294 91.2955 23.3778 92.2614 23.3778 93.3295C23.3778 94.3902 23.5294 95.3523 23.8324 96.2159C24.143 97.0795 24.6089 97.7689 25.2301 98.2841C25.8589 98.7917 26.6468 99.0455 27.5938 99.0455ZM50.5511 94.6591V84.5455H54.6648V102H50.6761V98.8977H50.4943C50.1004 99.875 49.4527 100.674 48.5511 101.295C47.6572 101.917 46.5549 102.227 45.2443 102.227C44.1004 102.227 43.089 101.973 42.2102 101.466C41.339 100.951 40.6572 100.205 40.1648 99.2273C39.6723 98.2424 39.4261 97.053 39.4261 95.6591V84.5455H43.5398V95.0227C43.5398 96.1288 43.8428 97.0076 44.4489 97.6591C45.0549 98.3106 45.8504 98.6364 46.8352 98.6364C47.4413 98.6364 48.0284 98.4886 48.5966 98.1932C49.1648 97.8977 49.6307 97.4583 49.9943 96.875C50.3655 96.2841 50.5511 95.5455 50.5511 94.6591ZM58.8949 102V84.5455H62.8835V87.4545H63.0653C63.3835 86.447 63.929 85.6705 64.7017 85.125C65.482 84.572 66.3722 84.2955 67.3722 84.2955C67.5994 84.2955 67.8532 84.3068 68.1335 84.3295C68.4214 84.3447 68.66 84.3712 68.8494 84.4091V88.1932C68.6752 88.1326 68.3987 88.0795 68.0199 88.0341C67.6487 87.9811 67.2888 87.9545 66.9403 87.9545C66.1903 87.9545 65.5161 88.1174 64.9176 88.4432C64.3267 88.7614 63.8608 89.2045 63.5199 89.7727C63.179 90.3409 63.0085 90.9962 63.0085 91.7386V102H58.8949ZM79.5199 108.545V84.5455H83.5653V87.4318H83.804C84.0161 87.0076 84.3153 86.5568 84.7017 86.0795C85.0881 85.5947 85.6108 85.1818 86.2699 84.8409C86.929 84.4924 87.7699 84.3182 88.7926 84.3182C90.1411 84.3182 91.357 84.6629 92.4403 85.3523C93.5313 86.0341 94.3949 87.0455 95.0312 88.3864C95.6752 89.7197 95.9972 91.3561 95.9972 93.2955C95.9972 95.2121 95.6828 96.8409 95.054 98.1818C94.4252 99.5227 93.5691 100.545 92.4858 101.25C91.4025 101.955 90.1752 102.307 88.804 102.307C87.804 102.307 86.9744 102.14 86.3153 101.807C85.6563 101.473 85.1259 101.072 84.7244 100.602C84.3305 100.125 84.0237 99.6742 83.804 99.25H83.6335V108.545H79.5199ZM83.554 93.2727C83.554 94.4015 83.7131 95.3902 84.0312 96.2386C84.357 97.0871 84.8229 97.75 85.429 98.2273C86.0426 98.697 86.785 98.9318 87.6562 98.9318C88.5653 98.9318 89.3267 98.6894 89.9403 98.2045C90.554 97.7121 91.0161 97.0417 91.3267 96.1932C91.6449 95.3371 91.804 94.3636 91.804 93.2727C91.804 92.1894 91.6487 91.2273 91.3381 90.3864C91.0275 89.5455 90.5653 88.8864 89.9517 88.4091C89.3381 87.9318 88.5729 87.6932 87.6562 87.6932C86.7775 87.6932 86.0312 87.9242 85.4176 88.3864C84.804 88.8485 84.3381 89.4962 84.0199 90.3295C83.7093 91.1629 83.554 92.1439 83.554 93.2727ZM103.634 78.7273V102H99.5199V78.7273H103.634ZM112.886 102.352C111.78 102.352 110.784 102.155 109.898 101.761C109.019 101.36 108.322 100.769 107.807 99.9886C107.299 99.2083 107.045 98.2462 107.045 97.1023C107.045 96.1174 107.227 95.303 107.591 94.6591C107.955 94.0152 108.451 93.5 109.08 93.1136C109.708 92.7273 110.417 92.4356 111.205 92.2386C112 92.0341 112.822 91.8864 113.67 91.7955C114.693 91.6894 115.523 91.5947 116.159 91.5114C116.795 91.4205 117.258 91.2841 117.545 91.1023C117.841 90.9129 117.989 90.6212 117.989 90.2273V90.1591C117.989 89.303 117.735 88.6402 117.227 88.1705C116.72 87.7008 115.989 87.4659 115.034 87.4659C114.027 87.4659 113.227 87.6856 112.636 88.125C112.053 88.5644 111.659 89.0833 111.455 89.6818L107.614 89.1364C107.917 88.0758 108.417 87.1894 109.114 86.4773C109.811 85.7576 110.663 85.2197 111.67 84.8636C112.678 84.5 113.792 84.3182 115.011 84.3182C115.852 84.3182 116.689 84.4167 117.523 84.6136C118.356 84.8106 119.117 85.1364 119.807 85.5909C120.496 86.0379 121.049 86.6477 121.466 87.4205C121.89 88.1932 122.102 89.1591 122.102 90.3182V102H118.148V99.6023H118.011C117.761 100.087 117.409 100.542 116.955 100.966C116.508 101.383 115.943 101.72 115.261 101.977C114.587 102.227 113.795 102.352 112.886 102.352ZM113.955 99.3295C114.78 99.3295 115.496 99.1667 116.102 98.8409C116.708 98.5076 117.174 98.0682 117.5 97.5227C117.833 96.9773 118 96.3826 118 95.7386V93.6818C117.871 93.7879 117.652 93.8864 117.341 93.9773C117.038 94.0682 116.697 94.1477 116.318 94.2159C115.939 94.2841 115.564 94.3447 115.193 94.3977C114.822 94.4508 114.5 94.4962 114.227 94.5341C113.614 94.6174 113.064 94.7538 112.58 94.9432C112.095 95.1326 111.712 95.3977 111.432 95.7386C111.152 96.072 111.011 96.5038 111.011 97.0341C111.011 97.7917 111.288 98.3636 111.841 98.75C112.394 99.1364 113.098 99.3295 113.955 99.3295ZM130.352 91.7727V102H126.239V84.5455H130.17V87.5114H130.375C130.777 86.5341 131.417 85.7576 132.295 85.1818C133.182 84.6061 134.277 84.3182 135.58 84.3182C136.784 84.3182 137.833 84.5758 138.727 85.0909C139.629 85.6061 140.326 86.3523 140.818 87.3295C141.318 88.3068 141.564 89.4924 141.557 90.8864V102H137.443V91.5227C137.443 90.3561 137.14 89.4432 136.534 88.7841C135.936 88.125 135.106 87.7955 134.045 87.7955C133.326 87.7955 132.686 87.9545 132.125 88.2727C131.572 88.5833 131.136 89.0341 130.818 89.625C130.508 90.2159 130.352 90.9318 130.352 91.7727ZM154.455 84.5455V87.7273H144.42V84.5455H154.455ZM146.898 80.3636H151.011V96.75C151.011 97.303 151.095 97.7273 151.261 98.0227C151.436 98.3106 151.663 98.5076 151.943 98.6136C152.223 98.7197 152.534 98.7727 152.875 98.7727C153.133 98.7727 153.367 98.7538 153.58 98.7159C153.799 98.678 153.966 98.6439 154.08 98.6136L154.773 101.83C154.553 101.905 154.239 101.989 153.83 102.08C153.428 102.17 152.936 102.223 152.352 102.239C151.322 102.269 150.394 102.114 149.568 101.773C148.742 101.424 148.087 100.886 147.602 100.159C147.125 99.4318 146.89 98.5227 146.898 97.4318V80.3636ZM171.44 89.1591L167.69 89.5682C167.584 89.1894 167.399 88.8333 167.134 88.5C166.876 88.1667 166.527 87.8977 166.088 87.6932C165.649 87.4886 165.111 87.3864 164.474 87.3864C163.618 87.3864 162.899 87.572 162.315 87.9432C161.74 88.3144 161.455 88.7955 161.463 89.3864C161.455 89.8939 161.641 90.3068 162.02 90.625C162.406 90.9432 163.043 91.2045 163.929 91.4091L166.906 92.0455C168.558 92.4015 169.785 92.9659 170.588 93.7386C171.399 94.5114 171.808 95.5227 171.815 96.7727C171.808 97.8712 171.486 98.8409 170.849 99.6818C170.221 100.515 169.346 101.167 168.224 101.636C167.103 102.106 165.815 102.341 164.361 102.341C162.224 102.341 160.505 101.894 159.202 101C157.899 100.098 157.122 98.8447 156.872 97.2386L160.884 96.8523C161.065 97.6402 161.452 98.2348 162.043 98.6364C162.634 99.0379 163.402 99.2386 164.349 99.2386C165.327 99.2386 166.111 99.0379 166.702 98.6364C167.3 98.2348 167.599 97.7386 167.599 97.1477C167.599 96.6477 167.406 96.2348 167.02 95.9091C166.641 95.5833 166.05 95.3333 165.247 95.1591L162.27 94.5341C160.596 94.1856 159.357 93.5985 158.554 92.7727C157.751 91.9394 157.353 90.8864 157.361 89.6136C157.353 88.5379 157.645 87.6061 158.236 86.8182C158.834 86.0227 159.664 85.4091 160.724 84.9773C161.793 84.5379 163.024 84.3182 164.418 84.3182C166.463 84.3182 168.073 84.7538 169.247 85.625C170.429 86.4962 171.16 87.6742 171.44 89.1591Z" fill="url(#paint0_linear_168_66)"/>
<defs>
<linearGradient id="paint0_linear_168_66" x1="-23.5" y1="157" x2="238.89" y2="101.526" gradientUnits="userSpaceOnUse">
<stop stop-color="#0C3B00"/>
<stop offset="0.5" stop-color="#197E00"/>
<stop offset="1" stop-color="#2EE400"/>
</linearGradient>
</defs>
</svg>