<svg width="12" height="13" viewBox="0 0 12 13" fill="none" xmlns="http://www.w3.org/2000/svg">
<path d="M2.5 3.5C2.521 4.48967 2.86217 5.31517 3.5235 5.9765C4.18483 6.63783 5.01033 6.979 6 7C6.98967 6.979 7.81517 6.63783 8.4765 5.9765C9.13783 5.31517 9.479 4.48967 9.5 3.5C9.479 2.51033 9.13783 1.68483 8.4765 1.0235C7.81517 0.362167 6.98967 0.021 6 0C5.01033 0.021 4.18483 0.362167 3.5235 1.0235C2.86217 1.68483 2.521 2.51033 2.5 3.5ZM11 13H0.5C0.354 13 0.234167 12.9532 0.1405 12.8595C0.0468334 12.7658 0 12.646 0 12.5V11C0.021 10.2917 0.265833 9.70317 0.7345 9.2345C1.20317 8.76583 1.79167 8.521 2.5 8.5H9.5C10.2083 8.521 10.7968 8.76583 11.2655 9.2345C11.7342 9.70317 11.979 10.2917 12 11V12.5C12 12.646 11.9532 12.7658 11.8595 12.8595C11.7658 12.9532 11.646 13 11.5 13H11Z" fill="#197E00"/>
</svg>